<?xml version="1.0" encoding="utf-8"?><svg viewBox="0 0 39 39" xmlns="http://www.w3.org/2000/svg" xmlns:xlink="http://www.w3.org/1999/xlink"><style>:root>svg{display:none}:root>svg:target{display:block}</style><svg viewBox="0 0 39 39" id="burger" xmlns="http://www.w3.org/2000/svg"><path fill-rule="evenodd" clip-rule="evenodd" d="M19.5 0C30.27 0 39 8.73 39 19.5S30.27 39 19.5 39 0 30.27 0 19.5 8.73 0 19.5 0Zm11.449 28.521a1.495 1.495 0 0 0 0-2.108l-3.817-3.816a1.495 1.495 0 0 0-2.11 0l-1.037 1.038a2.27 2.27 0 0 1-2.684.402 15.248 15.248 0 0 1-6.337-6.336 2.272 2.272 0 0 1 .4-2.686l1.04-1.038a1.495 1.495 0 0 0 0-2.108l-3.817-3.816a1.495 1.495 0 0 0-2.11 0c-.157.157-.357.347-.57.548-.534.505-1.2 1.133-1.469 1.527-1.418 2.075-.738 4.851.08 6.815 1.078 2.588 3.067 5.408 5.6 7.94 2.532 2.532 5.351 4.52 7.94 5.6 1.964.817 4.739 1.496 6.814.078.394-.27 1.023-.933 1.526-1.468.202-.213.392-.414.55-.572Z"/></svg><svg viewBox="0 0 27 27" id="close" xmlns="http://www.w3.org/2000/svg"><path d="M.278 26.717a.963.963 0 0 0 1.365 0l11.85-11.85 11.856 11.85a.965.965 0 1 0 1.364-1.364l-11.855-11.85 11.85-11.856A.965.965 0 1 0 25.344.283l-11.85 11.855L1.637.288a.964.964 0 0 0-1.36 1.359l11.85 11.855L.279 25.358a.964.964 0 0 0 0 1.36Z"/></svg></svg>